<?xml version="1.0" encoding="utf-8"?>
<!-- Generator: Adobe Illustrator 17.0.0, SVG Export Plug-In . SVG Version: 6.00 Build 0)  -->
<!DOCTYPE svg PUBLIC "-//W3C//DTD SVG 1.1//EN" "http://www.w3.org/Graphics/SVG/1.1/DTD/svg11.dtd">
<svg version="1.1" id="Capa_1" xmlns="http://www.w3.org/2000/svg" xmlns:xlink="http://www.w3.org/1999/xlink" x="0px" y="0px"
	 width="104.7px" height="62.97px" viewBox="0 0 104.7 62.97" enable-background="new 0 0 104.7 62.97" xml:space="preserve">
<g>
	<g>
		<path fill="#F9F9F9" d="M12.742,11.461c-0.712-0.248-1.3-0.649-1.762-1.201c-0.463-0.552-0.694-1.184-0.694-1.896
			c0-0.962,0.347-1.763,1.041-2.403S12.777,5,13.597,5c0.32,0,0.641,0.053,0.961,0.16l15.699,5.072
			c0.641,0.214,1.202,0.57,1.682,1.068c0.48,0.499,0.721,1.175,0.721,2.029c-0.106,0.926-0.258,2.234-0.454,3.925
			c-0.196,1.691-0.463,3.604-0.801,5.74s-0.756,4.405-1.254,6.809c-0.499,2.402-1.086,4.788-1.762,7.155
			c-0.677,2.368-1.451,4.637-2.323,6.809c-0.873,2.171-1.869,4.085-2.99,5.74c-1.121,1.655-2.358,2.98-3.711,3.978
			c-1.354,0.996-2.849,1.495-4.485,1.495c-1.389,0-2.59-0.258-3.604-0.773c-1.015-0.517-1.887-1.202-2.617-2.057
			c-0.73-0.854-1.335-1.834-1.815-2.937c-0.48-1.104-0.854-2.251-1.122-3.444c-0.267-1.192-0.454-2.376-0.561-3.551
			s-0.16-2.278-0.16-3.311c0-0.89,0.32-1.655,0.961-2.297c0.641-0.641,1.423-0.961,2.35-0.961c0.89,0,1.655,0.32,2.296,0.961
			c0.641,0.642,0.961,1.407,0.961,2.297c0,0.249,0.008,0.659,0.027,1.228c0.018,0.57,0.053,1.202,0.107,1.896
			c0.053,0.694,0.151,1.425,0.293,2.189c0.142,0.767,0.338,1.46,0.587,2.083c0.249,0.623,0.561,1.131,0.935,1.521
			c0.374,0.392,0.828,0.588,1.362,0.588c0.391,0,0.782-0.196,1.174-0.588c0.392-0.391,0.641-0.676,0.748-0.854
			c0.748-1.032,1.469-2.322,2.163-3.871c0.694-1.549,1.352-3.239,1.976-5.073c0.623-1.833,1.21-3.755,1.762-5.767
			c0.551-2.011,1.032-4.005,1.441-5.98s0.756-3.88,1.042-5.714c0.285-1.833,0.48-3.479,0.587-4.939L12.742,11.461z M17.869,57.97
			c-1.247,0-2.341-0.205-3.284-0.613c-0.944-0.41-1.771-0.971-2.483-1.683c0.427,0.107,0.872,0.195,1.335,0.268
			c0.462,0.07,0.943,0.106,1.442,0.106c1.744,0,3.346-0.507,4.806-1.521c1.459-1.015,2.777-2.368,3.952-4.059
			c1.175-1.691,2.224-3.648,3.15-5.874c0.925-2.225,1.753-4.547,2.483-6.969c0.729-2.42,1.353-4.867,1.869-7.342
			c0.516-2.474,0.952-4.797,1.308-6.969c0.355-2.171,0.632-4.12,0.828-5.847c0.195-1.727,0.347-3.07,0.454-4.032
			c0.534,0.25,0.988,0.606,1.361,1.068c0.374,0.463,0.561,1.067,0.561,1.815c-0.107,0.926-0.259,2.234-0.454,3.925
			c-0.196,1.691-0.463,3.604-0.801,5.74c-0.339,2.136-0.757,4.405-1.255,6.809c-0.499,2.402-1.086,4.788-1.762,7.155
			c-0.677,2.368-1.451,4.638-2.323,6.809c-0.873,2.171-1.869,4.085-2.991,5.74c-1.121,1.655-2.358,2.98-3.711,3.978
			C21,57.472,19.505,57.97,17.869,57.97z M14.558,41.898c0,0.392,0.008,1.112,0.027,2.162c0.018,1.051,0.115,2.146,0.294,3.284
			c-0.534,0-0.953-0.374-1.255-1.121c-0.303-0.748-0.526-1.603-0.667-2.563c-0.143-0.961-0.232-1.896-0.267-2.804
			c-0.036-0.907-0.054-1.539-0.054-1.896c0.569,0.25,1.032,0.642,1.389,1.175C14.379,40.67,14.558,41.257,14.558,41.898z
			 M24.543,17.281l-8.811-2.83c-0.89-0.248-1.567-0.765-2.029-1.549l10.946,3.472L24.543,17.281z"/>
	</g>
	<g>
		<path fill="#F9F9F9" d="M51.255,37.443c0.519-0.976,1.053-1.925,1.604-2.849c0.55-0.923,1.136-1.853,1.759-2.786
			c0.187-0.29,0.384-0.592,0.592-0.902c0.207-0.312,0.425-0.597,0.653-0.856s0.478-0.472,0.748-0.639
			c0.27-0.165,0.57-0.249,0.903-0.249c0.498,0,0.938,0.188,1.323,0.561c0.384,0.374,0.576,0.82,0.576,1.339
			c0,0.083-0.005,0.166-0.016,0.249c-0.011,0.083-0.026,0.177-0.047,0.28c-0.478,2.512-0.799,5.018-0.965,7.519
			c-0.167,2.501-0.249,5.027-0.249,7.58c0,0.519-0.187,0.965-0.561,1.339c-0.374,0.373-0.82,0.561-1.338,0.561
			c-0.54,0-0.997-0.188-1.37-0.561c-0.374-0.374-0.56-0.82-0.56-1.339c0-0.478,0-0.965,0-1.463s0.005-1.032,0.015-1.604
			c0.01-0.57,0.031-1.188,0.063-1.853c0.031-0.664,0.067-1.421,0.109-2.272c-0.789,1.494-1.546,3.025-2.272,4.592
			c-0.727,1.567-1.38,3.14-1.961,4.717c-0.167,0.477-0.416,0.829-0.747,1.059c-0.332,0.228-0.706,0.342-1.121,0.342
			c-0.519,0-0.96-0.192-1.323-0.576c-0.363-0.384-0.545-0.824-0.545-1.322c0-1.557,0.063-3.098,0.187-4.623S47,40.63,47.208,39.093
			c-1.08,1.992-2.143,4.031-3.191,6.117c-1.048,2.086-1.967,4.197-2.755,6.335c-0.145,0.415-0.374,0.752-0.685,1.012
			c-0.312,0.26-0.685,0.39-1.121,0.39c-0.519,0-0.976-0.183-1.37-0.545c-0.395-0.363-0.591-0.825-0.591-1.386
			c0-0.54,0.026-1.085,0.078-1.635s0.109-1.095,0.171-1.634c0.353-2.989,0.887-5.946,1.603-8.873
			c0.716-2.926,1.479-5.842,2.289-8.747c-0.914,0.871-1.775,1.764-2.584,2.677c-0.187,0.208-0.369,0.426-0.545,0.654
			c-0.177,0.229-0.363,0.436-0.561,0.622s-0.41,0.338-0.638,0.451c-0.229,0.114-0.478,0.172-0.747,0.172
			c-0.54,0-1.001-0.188-1.385-0.561c-0.384-0.374-0.576-0.83-0.576-1.37c0-0.29,0.052-0.534,0.156-0.731
			c0.104-0.197,0.238-0.399,0.405-0.607c0.498-0.602,1.095-1.271,1.79-2.008c0.695-0.736,1.442-1.479,2.242-2.226
			c0.798-0.747,1.629-1.474,2.49-2.179c0.861-0.706,1.707-1.328,2.537-1.868c0.312-0.187,0.623-0.28,0.934-0.28
			c0.561,0,1.022,0.192,1.385,0.576c0.363,0.384,0.545,0.824,0.545,1.323c0,0.124-0.026,0.29-0.078,0.498
			c-0.052,0.207-0.115,0.436-0.187,0.685c-0.073,0.249-0.146,0.503-0.218,0.763c-0.073,0.26-0.14,0.493-0.203,0.7l-2.802,10.367
			l3.923-7.036c0.145-0.249,0.327-0.586,0.544-1.012c0.218-0.425,0.472-0.846,0.763-1.261s0.607-0.772,0.95-1.074
			c0.342-0.301,0.7-0.451,1.074-0.451c0.664,0,1.162,0.218,1.494,0.653c0.332,0.437,0.498,0.883,0.498,1.339
			c0,0.042-0.005,0.099-0.016,0.172c-0.011,0.072-0.037,0.223-0.078,0.451c-0.042,0.229-0.109,0.581-0.203,1.059
			c-0.093,0.478-0.213,1.131-0.358,1.961L51.255,37.443z M38.305,36.447c-0.395,0-0.748-0.104-1.059-0.312
			c-0.312-0.207-0.54-0.477-0.685-0.81c0.291,0,0.565-0.051,0.825-0.155c0.259-0.104,0.529-0.28,0.809-0.529
			c0.28-0.249,0.592-0.57,0.934-0.965s0.763-0.872,1.261-1.433c-0.187,0.665-0.363,1.313-0.529,1.946s-0.332,1.271-0.498,1.914
			C39.031,36.333,38.678,36.447,38.305,36.447z M41.2,54.69c-0.395,0-0.752-0.099-1.074-0.296s-0.544-0.473-0.669-0.825
			c0.581,0,1.079-0.177,1.494-0.529c0.415-0.353,0.716-0.778,0.903-1.276c0.581-1.494,1.25-3.04,2.008-4.639
			c0.757-1.598,1.53-3.175,2.319-4.731c-0.146,1.391-0.239,2.813-0.28,4.265c-0.54,1.101-1.054,2.199-1.541,3.3
			c-0.488,1.1-0.939,2.211-1.354,3.331c-0.146,0.415-0.374,0.752-0.685,1.012C42.009,54.56,41.636,54.69,41.2,54.69z M48.827,26.516
			c0,0.062-0.016,0.177-0.046,0.342c-0.031,0.167-0.151,0.473-0.358,0.919c-0.208,0.446-0.535,1.085-0.981,1.914
			c-0.446,0.831-1.084,1.951-1.915,3.362l1.463-5.479c0.27-0.81,0.456-1.422,0.56-1.837s0.156-0.727,0.156-0.935
			c0.353,0.167,0.627,0.405,0.825,0.717C48.728,25.831,48.827,26.164,48.827,26.516z M50.134,51.95
			c-0.374,0-0.711-0.108-1.012-0.326c-0.301-0.218-0.535-0.482-0.7-0.794c0.539-0.021,1.022-0.177,1.447-0.467
			c0.425-0.291,0.752-0.737,0.981-1.339c0.415-1.121,0.861-2.241,1.338-3.362c0.477-1.121,0.985-2.221,1.525-3.3
			c-0.042,0.664-0.067,1.173-0.078,1.525c-0.011,0.354-0.016,0.644-0.016,0.871c0,0.167,0,0.302,0,0.405c0,0.104,0,0.213,0,0.327
			s0.005,0.244,0.016,0.389c0.01,0.146,0.026,0.332,0.046,0.561c-0.623,1.37-1.183,2.739-1.681,4.109
			c-0.167,0.478-0.416,0.83-0.748,1.059C50.923,51.836,50.549,51.95,50.134,51.95z M53.465,28.881
			c0.374,0.167,0.654,0.432,0.841,0.794c0.187,0.363,0.28,0.722,0.28,1.074c-0.457,0.54-0.846,1.079-1.167,1.619
			c-0.322,0.54-0.597,1.007-0.825,1.4L53.465,28.881z M57.979,50.332c-0.395,0-0.747-0.104-1.059-0.312
			c-0.311-0.208-0.54-0.478-0.685-0.81c0.685,0,1.276-0.249,1.774-0.747s0.747-1.09,0.747-1.774c0-2.511,0.083-5.032,0.249-7.565
			c0.166-2.531,0.508-5.209,1.027-8.031c0.311,0.166,0.576,0.399,0.794,0.7c0.218,0.301,0.327,0.639,0.327,1.012
			c0,0.083-0.005,0.166-0.016,0.249c-0.011,0.083-0.026,0.177-0.046,0.28c-0.478,2.512-0.799,5.018-0.965,7.519
			c-0.167,2.501-0.249,5.027-0.249,7.58c0,0.519-0.187,0.965-0.561,1.339C58.944,50.144,58.498,50.332,57.979,50.332z"/>
	</g>
	<g>
		<path fill="#F9F9F9" d="M64.529,42.829c0.519,0,0.965,0.187,1.339,0.561c0.374,0.373,0.561,0.83,0.561,1.369l-0.467,2.429
			c-0.083,0.415-0.306,0.753-0.669,1.012c-0.363,0.26-0.752,0.39-1.167,0.39c-0.623,0-1.095-0.198-1.417-0.592
			c-0.322-0.395-0.483-0.841-0.483-1.339l0.467-2.459c0.083-0.415,0.306-0.747,0.669-0.996
			C63.725,42.954,64.114,42.829,64.529,42.829z M65.868,50.332c-0.457,0-0.831-0.109-1.121-0.327
			c-0.291-0.218-0.509-0.482-0.654-0.794c0.56,0,1.079-0.182,1.557-0.545c0.477-0.363,0.789-0.814,0.934-1.354l0.467-2.429v-0.125
			c0.332,0.146,0.602,0.374,0.809,0.686s0.312,0.664,0.312,1.059l-0.467,2.428c-0.083,0.415-0.307,0.752-0.669,1.012
			C66.672,50.202,66.283,50.332,65.868,50.332z"/>
	</g>
	<g>
		<path fill="#F9F9F9" d="M85.657,33.034c-0.819,0.249-1.665,0.463-2.537,0.641c-0.873,0.179-1.718,0.267-2.536,0.267
			c-0.819,0-1.647-0.15-2.483-0.453c-0.837-0.303-1.594-0.748-2.27-1.335c-0.677-0.588-1.229-1.335-1.655-2.243
			c-0.427-0.907-0.641-1.967-0.641-3.177c0-1.46,0.305-2.893,0.916-4.299c0.61-1.406,1.417-2.768,2.422-4.085
			c1.005-1.316,2.142-2.571,3.41-3.765c1.268-1.192,2.579-2.296,3.932-3.311c1.353-1.015,2.688-1.931,4.005-2.75
			c1.317-0.818,2.51-1.513,3.578-2.083c0.462-0.284,1.015-0.427,1.656-0.427c1.068,0,1.886,0.339,2.456,1.015
			c0.569,0.677,0.854,1.424,0.854,2.242c0,0.57-0.133,1.113-0.4,1.629c-0.267,0.517-0.686,0.917-1.255,1.201
			c-0.677,0.356-1.522,0.847-2.537,1.469c-1.015,0.623-2.074,1.326-3.177,2.109c-1.104,0.783-2.208,1.629-3.311,2.536
			c-1.104,0.908-2.101,1.834-2.99,2.776c-0.891,0.944-1.611,1.896-2.163,2.857c-0.553,0.961-0.828,1.887-0.828,2.776
			c0,0.179,0.035,0.356,0.106,0.534c0.07,0.179,0.247,0.267,0.529,0.267c0.564,0,1.163-0.088,1.798-0.267
			c0.634-0.178,1.269-0.382,1.904-0.614c0.634-0.23,1.281-0.436,1.938-0.614c0.658-0.178,1.308-0.267,1.948-0.267
			c0.569,0,1.122,0.106,1.655,0.32c0.534,0.214,1.015,0.517,1.442,0.908s0.765,0.881,1.015,1.468
			c0.249,0.588,0.374,1.255,0.374,2.003c0,2.136-0.49,4.219-1.468,6.247c-0.979,2.029-2.286,3.961-3.921,5.794
			c-1.635,1.834-3.514,3.543-5.634,5.126c-2.121,1.584-4.338,2.981-6.651,4.192c-0.534,0.248-1.104,0.374-1.708,0.374
			c-0.819,0-1.567-0.294-2.243-0.882c-0.676-0.587-1.014-1.38-1.014-2.376c0-0.569,0.151-1.112,0.454-1.629
			c0.302-0.516,0.703-0.916,1.202-1.201c1.209-0.712,2.536-1.521,3.978-2.43c1.442-0.907,2.809-1.904,4.104-2.99
			c1.293-1.085,2.46-2.26,3.501-3.524C84.449,35.802,85.198,34.458,85.657,33.034z M76.365,55.088c-0.641,0-1.228-0.17-1.762-0.508
			c-0.534-0.339-0.943-0.81-1.228-1.415c0.32,0,0.658-0.035,1.015-0.106c0.355-0.072,0.729-0.214,1.122-0.428
			c2.384-1.246,4.681-2.688,6.888-4.325c2.207-1.637,4.165-3.408,5.874-5.313c1.708-1.904,3.07-3.925,4.085-6.061
			c1.015-2.137,1.521-4.326,1.521-6.568c0-0.178-0.009-0.338-0.026-0.48c-0.019-0.143-0.045-0.303-0.08-0.48
			c0.605,0.392,1.095,0.917,1.468,1.575c0.374,0.659,0.561,1.45,0.561,2.376c0,2.136-0.49,4.219-1.468,6.248
			c-0.979,2.028-2.288,3.96-3.925,5.793c-1.638,1.834-3.524,3.542-5.66,5.127c-2.136,1.583-4.361,2.98-6.675,4.191
			C77.54,54.963,76.97,55.088,76.365,55.088z M82.198,36.825c-0.707-0.142-1.387-0.382-2.041-0.721
			c-0.654-0.338-1.228-0.792-1.722-1.361c0.353,0.106,0.706,0.178,1.06,0.213c0.354,0.036,0.725,0.054,1.114,0.054
			c0.529,0,1.059-0.035,1.59-0.106c0.53-0.071,1.06-0.16,1.59-0.268C83.328,35.42,82.798,36.149,82.198,36.825z M98.045,15.091
			c-0.748,0.428-1.701,0.997-2.857,1.709c-1.157,0.713-2.359,1.514-3.604,2.403c-1.247,0.89-2.465,1.852-3.658,2.883
			c-1.193,1.033-2.199,2.083-3.017,3.151l-0.908,0.32c-0.534,0.178-1.033,0.339-1.495,0.48c-0.463,0.143-0.926,0.249-1.389,0.32
			c0.071-0.783,0.382-1.61,0.935-2.483c0.552-0.872,1.255-1.743,2.109-2.616c0.854-0.872,1.806-1.727,2.857-2.563
			c1.049-0.836,2.1-1.619,3.15-2.35c1.05-0.729,2.047-1.37,2.99-1.922c0.943-0.552,1.735-1.006,2.376-1.361
			c0.782-0.392,1.353-0.935,1.708-1.629c0.355-0.694,0.534-1.415,0.534-2.163c0.605,0.285,1.076,0.703,1.415,1.255
			c0.338,0.553,0.507,1.131,0.507,1.735c0,0.57-0.134,1.113-0.4,1.629C99.033,14.407,98.614,14.807,98.045,15.091z"/>
	</g>
</g>
</svg>
